Coordinates
version=1
nRows=24
nColumns=22
inDegrees=yes

Units are S.I. units (second, meters, Newtons, ...)
If the header above contains a line with 'inDegrees', this indicates whether rotational values are in degrees (yes) or radians (no).

endheader
time	pelvis_tilt	pelvis_list	pelvis_rotation	pelvis_tx	pelvis_ty	pelvis_tz	hip_flexion_r	hip_adduction_r	hip_rotation_r	knee_angle_r	ankle_angle_r	subtalar_angle_r	hip_flexion_l	hip_adduction_l	hip_rotation_l	knee_angle_l	ankle_angle_l	subtalar_angle_l	lumbar_extension	lumbar_bending	lumbar_rotation
      0.01000000	      2.07482800	     -0.83534081	      0.14219407	      0.13645705	      1.08825526	      1.18028522	     -2.53516777	      1.57529865	     -4.25435035	    -10.38404158	     12.10105296	     -2.19009777	     -1.77236245	     -0.64479070	     -2.36197162	    -12.17296972	     12.41468194	     -2.03270457	     -3.80591096	     -0.79055584	     -5.07349208
      0.02000000	      2.06953381	     -0.83388984	      0.14632188	      0.13650363	      1.08825152	      1.18031299	     -2.53361407	      1.57587093	     -4.25468123	    -10.38217052	     12.10145838	     -2.19028213	     -1.77084026	     -0.64646368	     -2.36306384	    -12.17015321	     12.41480964	     -2.03256587	     -3.81190817	     -0.78954164	     -5.07100507
      0.03000000	      2.06331547	     -0.83212697	      0.15280378	      0.13656295	      1.08824460	      1.18034443	     -2.53238932	      1.57698615	     -4.25614246	    -10.37966003	     12.10213272	     -2.19050165	     -1.76895580	     -0.64807320	     -2.36396294	    -12.16668148	     12.41488052	     -2.03222637	     -3.81818085	     -0.78918106	     -5.06757500
      0.04000000	      2.05633987	     -0.83021866	      0.16134613	      0.13663019	      1.08823859	      1.18037737	     -2.53135438	      1.57807800	     -4.25879188	    -10.37649443	     12.10306339	     -2.19079838	     -1.76673725	     -0.64978762	     -2.36436447	    -12.16245987	     12.41488453	     -2.03166615	     -3.82487676	     -0.78925544	     -5.06348799
      0.05000000	      2.04887197	     -0.82824867	      0.17184084	      0.13670717	      1.08822918	      1.18041166	     -2.53070622	      1.57962465	     -4.26308048	    -10.37290316	     12.10431356	     -2.19124011	     -1.76454897	     -0.65146373	     -2.36365317	    -12.15770831	     12.41475476	     -2.03077949	     -3.83146767	     -0.78994444	     -5.05888317
      0.06000000	      2.04057637	     -0.82632632	      0.21147803	      0.13681059	      1.08822133	      1.18040046	     -2.53306437	      1.58066561	     -4.32563478	    -10.36687309	     12.10925170	     -2.19988342	     -1.76336530	     -0.65175434	     -2.30989001	    -12.14813692	     12.41015760	     -2.01276897	     -3.83295083	     -0.78953662	     -5.08007917
      0.07000000	      2.03305683	     -0.82428676	      0.21957064	      0.13688506	      1.08821336	      1.18044316	     -2.53105349	      1.58220950	     -4.32586968	    -10.36470665	     12.10976499	     -2.19991771	     -1.76074448	     -0.65342984	     -2.31106817	    -12.14379945	     12.41060370	     -2.01248743	     -3.84316315	     -0.79124827	     -5.07754619
      0.08000000	      2.02550428	     -0.82261481	      0.22930239	      0.13696390	      1.08820552	      1.18048461	     -2.52917504	      1.58429720	     -4.32719377	    -10.36315786	     12.11050073	     -2.19996940	     -1.75833422	     -0.65551831	     -2.31137902	    -12.13913155	     12.41085959	     -2.01207552	     -3.85348098	     -0.79315678	     -5.07375585
      0.09000000	      2.01771907	     -0.82160839	      0.23819421	      0.13704165	      1.08819783	      1.18053252	     -2.52668487	      1.58730886	     -4.33023711	    -10.36169308	     12.11144793	     -2.19998395	     -1.75580058	     -0.65857542	     -2.31044339	    -12.13439176	     12.41088235	     -2.01153497	     -3.86509693	     -0.79577019	     -5.06922704
      0.10000000	      2.01411560	     -0.82826381	      0.25374856	      0.13712049	      1.08819469	      1.18057382	     -2.52402440	      1.59744357	     -4.36772143	    -10.36871397	     12.11664156	     -2.19988501	     -1.75621473	     -0.66926496	     -2.28440974	    -12.13348343	     12.40780642	     -2.00555574	     -3.88216978	     -0.79190831	     -5.05138461
      0.11000000	      2.00564554	     -0.82736496	      0.26013716	      0.13719678	      1.08818705	      1.18063115	     -2.52020224	      1.60088678	     -4.36962713	    -10.36734905	     12.11688118	     -2.19958490	     -1.75352420	     -0.67271212	     -2.28492854	    -12.12796083	     12.40838883	     -2.00514867	     -3.89554113	     -0.79559363	     -5.05105477
      0.12000000	      1.99720710	     -0.82735587	      0.26596998	      0.13727359	      1.08818022	      1.18068691	     -2.51603455	      1.60481073	     -4.37280593	    -10.36662482	     12.11721820	     -2.19925976	     -1.75059310	     -0.67708571	     -2.28448394	    -12.12329615	     12.40861792	     -2.00464744	     -3.90990789	     -0.79972769	     -5.04915955
      0.13000000	      1.99538245	     -0.83686853	      0.28048360	      0.13733448	      1.08817932	      1.18072494	     -2.50749139	      1.61733166	     -4.41098548	    -10.38632871	     12.11860451	     -2.19617950	     -1.74899146	     -0.69114353	     -2.26376325	    -12.12810298	     12.40684401	     -1.99795611	     -3.93508033	     -0.79332539	     -5.03941526
      0.14000000	      1.98611192	     -0.83638255	      0.28473938	      0.13741371	      1.08817040	      1.18076997	     -2.50342786	      1.62039233	     -4.41269223	    -10.38342491	     12.11910851	     -2.19574209	     -1.74575248	     -0.69377035	     -2.26454569	    -12.12291210	     12.40754531	     -1.99761917	     -3.94901415	     -0.79724969	     -5.03932504
      0.15000000	      1.97731255	     -0.83618552	      0.28989931	      0.13749366	      1.08816189	      1.18080860	     -2.49926532	      1.62337539	     -4.41465777	    -10.38191403	     12.11964419	     -2.19533321	     -1.74266308	     -0.69658676	     -2.26476559	    -12.11849560	     12.40793494	     -1.99720943	     -3.96295121	     -0.80116847	     -5.03795788
      0.16000000	      1.96890628	     -0.83605058	      0.29520668	      0.13757355	      1.08815282	      1.18084171	     -2.49501712	      1.62623930	     -4.41689986	    -10.38141439	     12.12031834	     -2.19496765	     -1.73973920	     -0.69898984	     -2.26446207	    -12.11468407	     12.40810193	     -1.99673764	     -3.97670103	     -0.80472137	     -5.03571751
      0.17000000	      1.96089897	     -0.83582391	      0.30072672	      0.13765368	      1.08814209	      1.18087054	     -2.49075066	      1.62870168	     -4.41940959	    -10.38197226	     12.12125855	     -2.19465382	     -1.73707629	     -0.70109323	     -2.26359580	    -12.11135473	     12.40812729	     -1.99619542	     -3.98998075	     -0.80795939	     -5.03263438
      0.18000000	      1.95334702	     -0.83535359	      0.30650368	      0.13773451	      1.08813106	      1.18089524	     -2.48653677	      1.63070067	     -4.42204879	    -10.38360250	     12.12260239	     -2.19442081	     -1.73477442	     -0.70273275	     -2.26213387	    -12.10846623	     12.40810988	     -1.99559776	     -4.00247718	     -0.81092482	     -5.02870902
      0.19000000	      1.94995874	     -0.83389416	      0.31661978	      0.13781004	      1.08811983	      1.18091394	     -2.47604355	      1.63054145	     -4.43938511	    -10.40684765	     12.13303905	     -2.19390017	     -1.73373843	     -0.70301779	     -2.24391982	    -12.11231675	     12.40707208	     -1.99154469	     -4.01771045	     -0.81761241	     -5.01117422
      0.20000000	      1.94224616	     -0.83205068	      0.31967817	      0.13789622	      1.08810312	      1.18092991	     -2.47290809	      1.63024599	     -4.44066232	    -10.40612394	     12.13489607	     -2.19384065	     -1.73205629	     -0.70231866	     -2.24385083	    -12.10864929	     12.40771553	     -1.99113519	     -4.02720302	     -0.81792117	     -5.01050168
      0.21000000	      1.93639116	     -0.81917699	      0.32895577	      0.13797645	      1.08807917	      1.18093324	     -2.45947168	      1.61691778	     -4.45186794	    -10.43146681	     12.16219373	     -2.19531119	     -1.73168609	     -0.68861870	     -2.22069426	    -12.10620947	     12.41325334	     -1.98542081	     -4.03769732	     -0.83329002	     -5.00511358
      0.22000000	      1.93085668	     -0.81676317	      0.33859279	      0.13809013	      1.08805911	      1.18093922	     -2.45926600	      1.61661045	     -4.45003097	    -10.43449687	     12.16374722	     -2.19550576	     -1.73225198	     -0.68840165	     -2.22150631	    -12.10425969	     12.41361219	     -1.98505628	     -4.04132999	     -0.83558510	     -5.00350893
      0.23000000	      1.92682170	     -0.81343216	      0.34997623	      0.13821039	      1.08803836	      1.18093860	     -2.45928220	      1.61525980	     -4.44593614	    -10.44137129	     12.16679118	     -2.19601211	     -1.73397025	     -0.68694177	     -2.21989872	    -12.10378897	     12.41459068	     -1.98461262	     -4.04436348	     -0.83879249	     -5.00182325
      0.24000000	      1.92625670	     -0.78153436	      0.36198837	      0.13830931	      1.08801220	      1.18092718	     -2.45137220	      1.58167021	     -4.44429047	    -10.47185084	     12.22229865	     -2.20695875	     -1.74239418	     -0.65109949	     -2.18115782	    -12.09670708	     12.42160033	     -1.97661423	     -4.05549238	     -0.87514729	     -5.00959845
